<svg xmlns="http://www.w3.org/2000/svg" version="1.1" xmlns:xlink="http://www.w3.org/1999/xlink" xmlns:svgjs="http://svgjs.dev/svgjs" width="2000" height="1247" viewBox="0 0 2000 1247"><g transform="matrix(1,0,0,1,-1.2121212121212466,0.504858299595071)"><svg viewBox="0 0 396 247" data-background-color="#ffffff" preserveAspectRatio="xMidYMid meet" height="1247" width="2000" xmlns="http://www.w3.org/2000/svg" xmlns:xlink="http://www.w3.org/1999/xlink"><g id="tight-bounds" transform="matrix(1,0,0,1,0.2400000000000091,-0.09999999999999432)"><svg viewBox="0 0 395.52 247.2" height="247.2" width="395.52"><g><svg></svg></g><g><svg viewBox="0 0 395.52 247.2" height="247.2" width="395.52"><mask id="3535ee5c-9d28-49c6-89c4-e6e15c393612"><rect width="640" height="400" fill="white"></rect><g transform="matrix(1,0,0,1,115.25836170396613,37.08)"><svg viewBox="0 0 165.00327659206772 173.04" height="173.04" width="165.00327659206772"><g><svg viewBox="0 0 165.00327659206772 173.04" height="173.04" width="165.00327659206772"><g><svg viewBox="0 0 165.00327659206772 173.04" height="173.04" width="165.00327659206772"><g><svg viewBox="0 0 165.00327659206772 173.04" height="173.04" width="165.00327659206772"><g id="SvgjsG1753"><svg viewBox="0 0 165.00327659206772 173.04" height="173.04" width="165.00327659206772" id="SvgjsSvg1752"><g><svg viewBox="0 0 165.00327659206772 173.04" height="173.04" width="165.00327659206772"><g transform="matrix(1,0,0,1,0,0)"><svg width="165.00327659206772" viewBox="-1.6400000000000001 -40.44 44.1 46.21" height="173.04" data-palette-color="#000000"><path d="M8.62 1.27L4.17 1.27Q3.91 1.22 3.78 1 3.66 0.78 3.66 0.51L3.66 0.51Q3.66 0.29 3.76 0.12L3.76 0.12 6.76-5.62Q6.79-5.71 6.85-6.37 6.91-7.03 6.98-8.02 7.06-9.01 7.14-10.23 7.23-11.45 7.32-12.65 7.42-13.84 7.51-14.93 7.59-16.02 7.67-16.75L7.67-16.75Q7.69-17.04 7.74-17.64 7.79-18.24 7.84-19.02 7.89-19.8 7.96-20.7 8.03-21.61 8.11-22.51L8.11-22.51 8.45-27.61Q7.79-27.47 7.08-27.31 6.37-27.15 5.7-27.03 5.03-26.9 4.43-26.82 3.83-26.73 3.39-26.73L3.39-26.73Q3.13-26.73 2.99-26.98 2.86-27.22 2.86-27.49L2.86-27.49Q2.86-27.81 3-27.95L3-27.95 9.2-33.74Q9.96-34.42 10.71-34.85 11.45-35.28 12.5-35.52 13.55-35.77 15.08-35.85 16.6-35.94 18.95-35.94L18.95-35.94Q22.95-35.94 26.05-35.11 29.15-34.28 31.3-32.74L31.3-32.74Q32.89-31.64 34.13-30.44 35.38-29.25 36.23-27.8 37.08-26.34 37.52-24.6 37.96-22.85 37.96-20.65L37.96-20.65Q37.96-16.48 36.72-13.23 35.47-9.99 33.33-7.56 31.18-5.13 28.31-3.44 25.44-1.76 22.18-0.71 18.92 0.34 15.44 0.81 11.96 1.27 8.62 1.27L8.62 1.27ZM18.36-28.13L18.36-28.13 18.07-25.17Q17.92-23.63 17.76-21.89 17.6-20.14 17.46-18.35 17.31-16.55 17.16-14.81 17.02-13.06 16.89-11.55 16.77-10.03 16.67-8.84 16.58-7.64 16.5-6.93L16.5-6.93 16.43-6.2Q19.38-6.2 21.42-7.15 23.46-8.11 24.73-9.78 26-11.45 26.57-13.7 27.15-15.94 27.15-18.53L27.15-18.53Q27.15-20.39 26.64-22.11 26.12-23.83 25.15-25.39L25.15-25.39Q24.17-26.95 22.75-27.73 21.34-28.52 19.56-28.52L19.56-28.52Q19.26-28.52 18.92-28.38 18.58-28.25 18.36-28.13Z" opacity="1" transform="matrix(1,0,0,1,0,0)" fill="black" class="wordmark-text-0" id="SvgjsPath1751" stroke-width="8" stroke="black" stroke-linejoin="round"></path></svg></g></svg></g></svg></g></svg></g><g></g></svg></g></svg></g></svg></g></mask><g transform="matrix(1,0,0,1,115.25836170396613,37.08)"><svg viewBox="0 0 165.00327659206772 173.04" height="173.04" width="165.00327659206772"><g><svg viewBox="0 0 165.00327659206772 173.04" height="173.04" width="165.00327659206772"><g><svg viewBox="0 0 165.00327659206772 173.04" height="173.04" width="165.00327659206772"><g><svg viewBox="0 0 165.00327659206772 173.04" height="173.04" width="165.00327659206772"><g id="textblocktransform"><svg viewBox="0 0 165.00327659206772 173.04" height="173.04" width="165.00327659206772" id="textblock"><g><svg viewBox="0 0 165.00327659206772 173.04" height="173.04" width="165.00327659206772"><g transform="matrix(1,0,0,1,0,0)"><svg width="165.00327659206772" viewBox="-1.6400000000000001 -40.44 44.1 46.21" height="173.04" data-palette-color="#000000"><path d="M8.62 1.27L4.17 1.27Q3.91 1.22 3.78 1 3.66 0.78 3.66 0.51L3.66 0.51Q3.66 0.29 3.76 0.12L3.76 0.12 6.76-5.62Q6.79-5.71 6.85-6.37 6.91-7.03 6.98-8.02 7.06-9.01 7.14-10.23 7.23-11.45 7.32-12.65 7.42-13.84 7.51-14.93 7.59-16.02 7.67-16.75L7.67-16.75Q7.69-17.04 7.74-17.64 7.79-18.24 7.84-19.02 7.89-19.8 7.96-20.7 8.03-21.61 8.11-22.51L8.11-22.51 8.45-27.61Q7.79-27.47 7.08-27.31 6.37-27.15 5.7-27.03 5.03-26.9 4.43-26.82 3.83-26.73 3.39-26.73L3.39-26.73Q3.13-26.73 2.99-26.98 2.86-27.22 2.86-27.49L2.86-27.49Q2.86-27.81 3-27.95L3-27.95 9.2-33.74Q9.96-34.42 10.71-34.85 11.45-35.28 12.5-35.52 13.55-35.77 15.08-35.85 16.6-35.94 18.95-35.94L18.95-35.94Q22.95-35.94 26.05-35.11 29.15-34.28 31.3-32.74L31.3-32.74Q32.89-31.64 34.13-30.44 35.38-29.25 36.23-27.8 37.08-26.34 37.52-24.6 37.96-22.85 37.96-20.65L37.96-20.65Q37.96-16.48 36.72-13.23 35.47-9.99 33.33-7.56 31.18-5.13 28.31-3.44 25.44-1.76 22.18-0.71 18.92 0.34 15.44 0.81 11.96 1.27 8.62 1.27L8.62 1.27ZM18.36-28.13L18.36-28.13 18.07-25.17Q17.92-23.63 17.76-21.89 17.6-20.14 17.46-18.35 17.31-16.55 17.16-14.81 17.02-13.06 16.89-11.55 16.77-10.03 16.67-8.84 16.58-7.64 16.5-6.93L16.5-6.93 16.43-6.2Q19.38-6.2 21.42-7.15 23.46-8.11 24.73-9.78 26-11.45 26.57-13.7 27.15-15.94 27.15-18.53L27.15-18.53Q27.15-20.39 26.64-22.11 26.12-23.83 25.15-25.39L25.15-25.39Q24.17-26.95 22.75-27.73 21.34-28.52 19.56-28.52L19.56-28.52Q19.26-28.52 18.92-28.38 18.58-28.25 18.36-28.13Z" opacity="1" transform="matrix(1,0,0,1,0,0)" fill="#000000" class="wordmark-text-0" data-fill-palette-color="primary" id="text-0"></path></svg></g></svg></g></svg></g></svg></g><g></g></svg></g></svg></g></svg></g><g mask="url(#3535ee5c-9d28-49c6-89c4-e6e15c393612)"><g transform="matrix(3.0576481695439828, 0, 0, 3.0576481695439828, 73.54261054572412, 0.9999999999999858)"><svg xmlns="http://www.w3.org/2000/svg" xmlns:xlink="http://www.w3.org/1999/xlink" version="1.1" x="0" y="0" viewBox="10.131831675926476 9.882647445399506 81.25028294069664 80.19235255460052" enable-background="new 0 0 100 100" xml:space="preserve" height="80.19235255460052" width="81.25028294069664" class="icon-none" data-fill-palette-color="accent" id="none"><g fill="#000000" data-fill-palette-color="accent"><g enable-background="new    " fill="#000000" data-fill-palette-color="accent"><g fill="#000000" data-fill-palette-color="accent"><g fill="#000000" data-fill-palette-color="accent"><path d="M89.901 82.841c-0.226 0-0.452-0.056-0.657-0.167L62.337 68.037c-0.444-0.241-0.72-0.706-0.719-1.212l0.103-55.569c0.001-0.485 0.257-0.934 0.674-1.181 0.418-0.247 0.934-0.256 1.359-0.025l26.908 14.638c0.444 0.242 0.72 0.707 0.719 1.211l-0.104 55.569c-0.001 0.484-0.257 0.934-0.674 1.181C90.388 82.776 90.145 82.841 89.901 82.841zM64.372 66.011l24.157 13.142 0.098-52.439L64.469 13.571 64.372 66.011z" fill="#000000" data-fill-palette-color="accent"></path></g></g><g fill="#000000" data-fill-palette-color="accent"><g fill="#000000" data-fill-palette-color="accent"><path d="M38.417 90.075c-0.229 0-0.455-0.057-0.658-0.167L10.85 75.271c-0.521-0.284-0.802-0.87-0.696-1.454 0.106-0.585 0.575-1.035 1.163-1.117l51.486-7.234c0.292-0.044 0.59 0.013 0.849 0.153l26.907 14.637c0.521 0.284 0.803 0.87 0.697 1.454-0.106 0.585-0.575 1.035-1.163 1.117l-51.485 7.234C38.544 90.071 38.48 90.075 38.417 90.075zM15.827 74.846l22.848 12.428 46.908-6.592L62.735 68.254 15.827 74.846z" fill="#000000" data-fill-palette-color="accent"></path></g></g><g fill="#000000" data-fill-palette-color="accent"><g fill="#000000" data-fill-palette-color="accent"><path d="M38.519 34.507c-0.229 0-0.455-0.057-0.658-0.167L10.954 19.703c-0.521-0.284-0.802-0.87-0.696-1.455 0.106-0.584 0.575-1.035 1.163-1.117l51.485-7.235c0.291-0.041 0.591 0.013 0.849 0.154l26.908 14.638c0.521 0.284 0.803 0.87 0.697 1.455-0.106 0.584-0.575 1.035-1.163 1.117L38.71 34.494C38.646 34.503 38.583 34.507 38.519 34.507zM15.93 19.276l22.847 12.429 46.91-6.592L62.838 12.684 15.93 19.276z" fill="#000000" data-fill-palette-color="accent"></path></g></g><g fill="#000000" data-fill-palette-color="accent"><g fill="#000000" data-fill-palette-color="accent"><path d="M38.417 90.075c-0.33 0-0.652-0.119-0.904-0.338-0.301-0.263-0.473-0.642-0.472-1.041l0.102-55.567c0.001-0.685 0.506-1.265 1.185-1.36l51.486-7.235c0.396-0.054 0.795 0.063 1.095 0.325 0.301 0.262 0.474 0.641 0.473 1.04l-0.104 55.569c-0.001 0.685-0.506 1.265-1.185 1.359l-51.485 7.234C38.544 90.071 38.48 90.075 38.417 90.075zM39.893 34.328l-0.097 52.789 48.732-6.848 0.099-52.789L39.893 34.328z" fill="#000000" data-fill-palette-color="accent"></path></g></g><g fill="#000000" data-fill-palette-color="accent"><g fill="#000000" data-fill-palette-color="accent"><path d="M38.417 90.075c-0.33 0-0.652-0.119-0.904-0.338-0.301-0.263-0.473-0.642-0.472-1.041l0.102-55.567c0.001-0.685 0.506-1.265 1.185-1.36l51.486-7.235c0.396-0.054 0.795 0.063 1.095 0.325 0.301 0.262 0.474 0.641 0.473 1.04l-0.104 55.569c-0.001 0.685-0.506 1.265-1.185 1.359l-51.485 7.234C38.544 90.071 38.48 90.075 38.417 90.075zM39.893 34.328l-0.097 52.789 48.732-6.848 0.099-52.789L39.893 34.328z" fill="#000000" data-fill-palette-color="accent"></path></g></g><g fill="#000000" data-fill-palette-color="accent"><g fill="#000000" data-fill-palette-color="accent"><path d="M38.417 90.075c-0.226 0-0.452-0.056-0.658-0.167L10.85 75.271c-0.443-0.241-0.719-0.706-0.718-1.212l0.104-55.568c0.001-0.485 0.257-0.934 0.674-1.181 0.418-0.246 0.933-0.256 1.36-0.025l26.907 14.638c0.443 0.242 0.719 0.707 0.718 1.211l-0.102 55.568c-0.001 0.484-0.257 0.934-0.674 1.181C38.902 90.011 38.66 90.075 38.417 90.075zM12.885 73.245l24.159 13.142 0.097-52.438L12.983 20.807 12.885 73.245z" fill="#000000" data-fill-palette-color="accent"></path></g></g></g></g></svg></g></g></svg></g><defs></defs></svg><rect width="395.52" height="247.2" fill="none" stroke="none" visibility="hidden"></rect></g></svg></g></svg>